<?xml version="1.0" encoding="utf-8"?>
<!-- Generator: Adobe Illustrator 26.5.0, SVG Export Plug-In . SVG Version: 6.00 Build 0)  -->
<svg version="1.1" id="Layer_1" xmlns="http://www.w3.org/2000/svg" xmlns:xlink="http://www.w3.org/1999/xlink" x="0px" y="0px"
	 viewBox="0 0 542 600" style="enable-background:new 0 0 542 600;" xml:space="preserve">
<style type="text/css">
	.st0{fill:#003463;}
</style>
<path id="Path_1" class="st0" d="M541.54,261.41c-27.24,67.1-65.02,129.43-111.89,184.64C372.8,513.8,295.61,566.29,233.43,600
	H542.1L541.54,261.41z"/>
<path id="Path_2" class="st0" d="M-0.1,0v338.7c16.13-57.39,62.73-137.7,125.69-200.88C181.99,81.42,249.39,39.6,334.7,0.11H-0.1V0z
	"/>
<path id="Path_3" class="st0" d="M396.81,12.91C295.61,35.26,141.24,138.7,62.29,281.52C4.62,385.74-25.13,521.02,43,572.71
	C-6.46,519.33,12.74,394.53,76,279.4C145.26,153.61,308,32.14,418.08,17.35c124.22-18.02,137.6,131.91,46.27,290.53
	c-14.56,27.04-31.01,53.02-49.23,77.75c-19.18,27.81-4.28,9.9-0.79,5.67c32.79-43.28,61.15-89.75,84.64-138.71
	C566.21,117.23,546.25,6.78,448.35,6.78c-17.27,0.09-34.48,2.1-51.31,6 M272.48,228.02c-10.61,3.35-22.2,0.32-29.83-7.79
	c-5.38-5.54-8.37-12.97-8.33-20.69c-0.54-24.14,21.49-61.84,91.77-107.56c30.7-19.54,63.65-35.3,98.13-46.94
	c12.39-4.78,13.92-17.69-14.91-7.68C294.08,77.19,222.56,153.17,210.2,186.97c-18.53,50.05,31.8,55.17,37.93,55.17
	c-56.8,40.6-107.78,77.75-143.85,130.94c-42,62.06-67.54,131.25-60.74,180.97c4.61,29.25,25.24,39.82,47.33,42.38
	c25.98,3.01,59.64-8.23,97.47-27.25c42.1-24.12,81.28-52.98,116.8-86.03c4.5-4.56-1.21-6.45-4.61-3.67
	c-62.93,51.72-251.85,181.86-229.92,27.7c4.61-31.7,32.45-87.98,59.75-122.8c68.2-87.2,170.05-146.15,246.59-177.18l25.11-30.11
	l0.88-3.67c-37.5,13.24-130.37,54.61-130.37,54.61"/>
</svg>
